<?xml version="1.0" encoding="utf-8"?>
<!-- Generator: Adobe Illustrator 16.0.0, SVG Export Plug-In . SVG Version: 6.00 Build 0)  -->
<!DOCTYPE svg PUBLIC "-//W3C//DTD SVG 1.1//EN" "http://www.w3.org/Graphics/SVG/1.1/DTD/svg11.dtd">
<svg version="1.1" id="Layer_1" xmlns="http://www.w3.org/2000/svg" xmlns:xlink="http://www.w3.org/1999/xlink" x="0px" y="0px"
	 width="350.166px" height="350.103px" viewBox="0 0 350.166 350.103" enable-background="new 0 0 350.166 350.103"
	 xml:space="preserve">
<g>
	<path fill-rule="evenodd" clip-rule="evenodd" fill="#DADADA" d="M15.061,350.103c-1.333,0-2.667,0-4,0
		c-3.506-2.098-7.348-0.504-11-1c0-103.667,0-207.333,0-311c0.338-0.258,0.676-0.516,1.015-0.772
		c1.164-0.046,2.328-0.131,3.492-0.132c113.662-0.006,227.324-0.006,340.986,0c1.164,0.001,2.328,0.086,3.492,0.132
		c0.338,0.257,0.677,0.515,1.015,0.772c0,103.667,0,207.333,0,311c-109.656,0-219.312-0.007-328.968,0.051
		C19.094,349.154,16.802,348.148,15.061,350.103z M36.323,188.126c0,30.489,0.117,60.98-0.126,91.468
		c-0.036,4.58,1.302,5.376,5.527,5.347c27.489-0.194,54.981-0.175,82.471-0.012c3.69,0.022,4.704-0.834,4.696-4.63
		c-0.13-61.479-0.132-122.959,0.004-184.438c0.009-3.879-1.137-4.599-4.747-4.579c-27.657,0.152-55.315,0.161-82.971-0.006
		c-3.857-0.022-4.975,0.896-4.952,4.882C36.403,126.813,36.323,157.47,36.323,188.126z M205.798,254.899
		c0-8.993-0.11-17.988,0.063-26.978c0.057-2.867-0.833-3.636-3.65-3.617c-17.818,0.119-35.638,0.1-53.457,0.016
		c-2.464-0.012-3.508,0.484-3.49,3.258c0.117,17.984,0.11,35.971,0.004,53.956c-0.016,2.646,0.794,3.373,3.393,3.358
		c17.818-0.101,35.639-0.146,53.457,0.03c3.313,0.032,3.789-1.194,3.738-4.046C205.697,272.221,205.799,263.559,205.798,254.899z
		 M306.563,284.84c8.66,0,17.321-0.1,25.979,0.056c2.974,0.053,4.389-0.354,4.348-3.942c-0.2-17.65-0.144-35.305-0.035-52.956
		c0.017-2.744-0.66-3.715-3.566-3.694c-17.818,0.125-35.639,0.125-53.457,0c-2.914-0.021-3.579,0.96-3.563,3.698
		c0.108,17.652,0.122,35.306-0.009,52.957c-0.022,2.978,0.63,4.045,3.827,3.962C288.906,284.689,297.736,284.84,306.563,284.84z
		 M240.714,284.839c8.986,0,17.976-0.116,26.958,0.067c2.887,0.06,3.271-1.135,3.109-3.534c-1.189-17.554-1.198-35.114,0.004-52.668
		c0.194-2.836,0.016-4.484-3.754-4.438c-17.638,0.221-35.279,0.179-52.919,0.023c-3.134-0.027-3.882,0.896-3.857,3.924
		c0.14,17.639,0.159,35.28-0.013,52.919c-0.032,3.268,1.118,3.822,4.012,3.768C223.072,284.734,231.894,284.84,240.714,284.839z
		 M274.174,154.957c0.068-0.167,0.138-0.334,0.207-0.5c-36.813,0-73.624,0-110.436,0c0,0.166,0.001,0.333,0.001,0.5
		C200.689,154.957,237.432,154.957,274.174,154.957z M313.189,139.952c0.059-0.164,0.116-0.327,0.175-0.49
		c-35.135,0-70.269,0-105.403,0c0.001,0.163,0.002,0.326,0.002,0.49C243.039,139.952,278.114,139.952,313.189,139.952z
		 M277.201,124.827c0.051-0.167,0.102-0.334,0.152-0.5c-34.881,0-69.761,0-104.641,0c0,0.166-0.001,0.333-0.001,0.5
		C207.541,124.827,242.371,124.827,277.201,124.827z M210.947,172.248c-0.068,0.167-0.138,0.333-0.207,0.5
		c32.813,0,65.624,0,98.436,0c0-0.167-0.001-0.333-0.002-0.5C276.432,172.248,243.689,172.248,210.947,172.248z"/>
	<path fill-rule="evenodd" clip-rule="evenodd" fill="#2B2B2B" d="M349.046,37.33c-1.164-0.046-2.328-0.131-3.492-0.132
		c-113.662-0.006-227.324-0.006-340.986,0c-1.164,0.001-2.328,0.086-3.492,0.132c-0.338-0.076-0.676-0.151-1.015-0.228
		c0-11.32,0.073-22.641-0.059-33.959c-0.028-2.395,0.403-3.146,3.013-3.117c14.148,0.16,28.299,0.076,42.449,0.076
		C145.512,0.103,245.561,0.13,345.609,0c3.85-0.005,4.644,0.958,4.55,4.644c-0.276,10.813-0.099,21.639-0.099,32.459
		C349.723,37.179,349.384,37.254,349.046,37.33z"/>
	<path fill-rule="evenodd" clip-rule="evenodd" fill="#209050" d="M15.061,350.103c1.742-1.954,4.033-0.948,6.032-0.949
		c109.656-0.058,219.312-0.051,328.968-0.051c-1.105,2.092-3.031,0.937-4.492,0.938c-77.218,0.07-154.437,0.063-231.655,0.063
		C80.962,350.103,48.012,350.103,15.061,350.103z"/>
	<path fill-rule="evenodd" clip-rule="evenodd" fill="#27AD60" d="M0.061,349.103c3.652,0.496,7.494-1.098,11,1
		C7.418,349.502,3.553,351.354,0.061,349.103z"/>
	<path fill-rule="evenodd" clip-rule="evenodd" fill="#BFBFBF" d="M0.061,37.103c0.338,0.076,0.676,0.151,1.015,0.228
		c-0.338,0.257-0.676,0.515-1.015,0.772C0.061,37.77,0.061,37.436,0.061,37.103z"/>
	<path fill-rule="evenodd" clip-rule="evenodd" fill="#BFBFBF" d="M349.046,37.33c0.338-0.076,0.677-0.151,1.015-0.228
		c0,0.333,0,0.667,0,1C349.723,37.845,349.384,37.587,349.046,37.33z"/>
	<path fill-rule="evenodd" clip-rule="evenodd" fill="#2B2B2B" d="M36.323,188.126c0-30.656,0.08-61.313-0.098-91.969
		c-0.023-3.985,1.094-4.904,4.952-4.882c27.656,0.167,55.314,0.158,82.971,0.006c3.609-0.02,4.755,0.7,4.747,4.579
		c-0.137,61.479-0.134,122.959-0.004,184.438c0.008,3.796-1.005,4.652-4.696,4.63c-27.49-0.163-54.982-0.183-82.471,0.012
		c-4.225,0.029-5.563-0.767-5.527-5.347C36.44,249.106,36.323,218.615,36.323,188.126z"/>
	<path fill-rule="evenodd" clip-rule="evenodd" fill="#2B2B2B" d="M205.798,254.899c0.001,8.659-0.101,17.321,0.058,25.978
		c0.051,2.852-0.426,4.078-3.738,4.046c-17.817-0.176-35.638-0.131-53.457-0.03c-2.599,0.015-3.408-0.712-3.393-3.358
		c0.106-17.985,0.113-35.972-0.004-53.956c-0.018-2.773,1.025-3.27,3.49-3.258c17.819,0.084,35.639,0.104,53.457-0.016
		c2.817-0.019,3.707,0.75,3.65,3.617C205.688,236.911,205.798,245.906,205.798,254.899z"/>
	<path fill-rule="evenodd" clip-rule="evenodd" fill="#2B2B2B" d="M306.563,284.84c-8.826,0-17.656-0.15-26.477,0.08
		c-3.197,0.083-3.85-0.984-3.827-3.962c0.131-17.651,0.117-35.305,0.009-52.957c-0.017-2.738,0.648-3.719,3.563-3.698
		c17.818,0.125,35.639,0.125,53.457,0c2.906-0.021,3.583,0.95,3.566,3.694c-0.108,17.651-0.165,35.306,0.035,52.956
		c0.041,3.589-1.374,3.995-4.348,3.942C323.884,284.74,315.223,284.84,306.563,284.84z"/>
	<path fill-rule="evenodd" clip-rule="evenodd" fill="#2B2B2B" d="M240.714,284.84c-8.82,0-17.642-0.105-26.46,0.061
		c-2.894,0.055-4.044-0.5-4.012-3.768c0.172-17.639,0.152-35.28,0.013-52.919c-0.024-3.028,0.724-3.951,3.857-3.924
		c17.64,0.155,35.281,0.197,52.919-0.023c3.77-0.047,3.948,1.602,3.754,4.438c-1.202,17.554-1.193,35.114-0.004,52.668
		c0.162,2.399-0.223,3.594-3.109,3.534C258.689,284.723,249.7,284.839,240.714,284.84z"/>
	<path fill-rule="evenodd" clip-rule="evenodd" d="M274.174,154.957c-36.742,0-73.484,0-110.227,0c0-0.167-0.001-0.334-0.001-0.5
		c36.812,0,73.623,0,110.436,0C274.312,154.623,274.242,154.79,274.174,154.957z"/>
	<path fill-rule="evenodd" clip-rule="evenodd" d="M313.189,139.952c-35.075,0-70.15,0-105.227,0c0-0.164-0.001-0.327-0.002-0.49
		c35.135,0,70.269,0,105.403,0C313.306,139.625,313.248,139.788,313.189,139.952z"/>
	<path fill-rule="evenodd" clip-rule="evenodd" d="M277.201,124.827c-34.83,0-69.66,0-104.49,0c0-0.167,0-0.334,0.001-0.5
		c34.88,0,69.76,0,104.641,0C277.303,124.493,277.252,124.66,277.201,124.827z"/>
	<path fill-rule="evenodd" clip-rule="evenodd" d="M210.947,172.248c32.742,0,65.484,0,98.227,0c0.001,0.167,0.002,0.333,0.002,0.5
		c-32.812,0-65.623,0-98.436,0C210.81,172.581,210.879,172.415,210.947,172.248z"/>
</g>
</svg>
