<?xml version="1.0" encoding="utf-8"?>
<!-- Generator: Adobe Illustrator 16.0.0, SVG Export Plug-In . SVG Version: 6.00 Build 0)  -->
<!DOCTYPE svg PUBLIC "-//W3C//DTD SVG 1.1//EN" "http://www.w3.org/Graphics/SVG/1.1/DTD/svg11.dtd">
<svg version="1.1" id="Layer_1" xmlns="http://www.w3.org/2000/svg" xmlns:xlink="http://www.w3.org/1999/xlink" x="0px" y="0px"
	 width="349.12px" height="349.208px" viewBox="0 0 349.12 349.208" enable-background="new 0 0 349.12 349.208"
	 xml:space="preserve">
<g>
	<path fill-rule="evenodd" clip-rule="evenodd" fill="#DADADA" d="M174.539,349.103c-56.834,0-113.667-0.044-170.5,0.105
		c-3.558,0.009-4.024-0.888-4.021-4.171C0.12,231.371,0.125,117.704,0,4.038c-0.004-3.557,0.885-4.024,4.168-4.021
		c113.667,0.103,227.333,0.108,341-0.017c3.557-0.005,4.024,0.885,4.021,4.168c-0.104,113.666-0.108,227.333,0.018,340.999
		c0.004,3.557-0.885,4.029-4.169,4.022C288.205,349.068,231.372,349.103,174.539,349.103z M71.75,294.474
		c0.336,0.323,0.673,0.647,1.01,0.971c1.873,1.016,3.912,0.644,5.885,0.645c63.963,0.018,127.927,0.019,191.891-0.004
		c1.964,0,4.015,0.436,5.855-0.703c0.332-0.33,0.664-0.661,0.996-0.991c1.134-1.843,0.699-3.893,0.699-5.856
		c0.023-54.622,0.023-109.243,0-163.864c0-1.964,0.435-4.015-0.703-5.854c-0.33-0.332-0.661-0.664-0.991-0.996
		c-1.843-1.134-3.894-0.699-5.858-0.699c-63.963-0.022-127.927-0.021-191.891-0.003c-1.973,0-4.013-0.372-5.882,0.646
		c-0.337,0.322-0.675,0.645-1.013,0.967c-0.328,0.341-0.657,0.683-0.985,1.023c-0.954,1.706-0.646,3.576-0.646,5.387
		c-0.014,54.309-0.014,108.618,0,162.927c0,1.811-0.307,3.681,0.65,5.383C71.093,293.793,71.42,294.135,71.75,294.474z
		 M127.017,107.249c0.338,0.303,0.676,0.605,1.015,0.908l0.03,0.019c13.224,1.7,26.462,1.203,39.701,0.229
		c0.117-0.008,0.219-0.234,0.327-0.358c0.345-0.307,0.689-0.614,1.033-0.921c0.345-0.317,0.689-0.634,1.033-0.951l0.022-0.03
		c1.006-0.867,0.918-2.059,0.919-3.204c0.009-11.226,0.009-22.45,0-33.676c0-1.146,0.087-2.337-0.919-3.204l-0.021-0.034
		c-0.344-0.316-0.688-0.632-1.032-0.948c-0.345-0.308-0.689-0.614-1.034-0.922c-1.419-1.695-3.371-1.011-5.095-1.025
		c-8.249-0.071-16.5-0.126-24.748,0.014c-3.404,0.058-6.908-0.814-10.215,0.729c-0.41,0.379-0.821,0.757-1.231,1.136
		c-0.252,0.342-0.504,0.683-0.756,1.023l-0.018,0.029c-1.007,0.866-0.917,2.059-0.918,3.204c-0.009,11.225-0.009,22.449,0,33.675
		c0.001,1.145-0.088,2.337,0.919,3.203l0.019,0.031c0.303,0.339,0.606,0.677,0.909,1.015L127.017,107.249z M233.045,66.029
		l-0.019,0.031c-1.475,1.517-0.889,3.431-0.901,5.178c-0.06,8.407-0.118,16.816,0.019,25.222c0.054,3.235-0.799,6.576,0.729,9.712
		c0.721,0.72,1.441,1.44,2.161,2.16c13.107,1.53,26.239,0.759,39.364,0.375c0.237-0.007,0.463-0.43,0.693-0.658
		c0.345-0.308,0.69-0.614,1.035-0.922c0.344-0.316,0.688-0.633,1.031-0.949l0.021-0.033c1.007-0.867,0.919-2.059,0.92-3.204
		c0.009-11.226,0.009-22.45,0-33.676c-0.001-1.146,0.087-2.337-0.92-3.204l-0.021-0.034c-0.345-0.316-0.688-0.632-1.032-0.948
		c-0.345-0.308-0.689-0.614-1.034-0.922c-1.42-1.695-3.371-1.011-5.096-1.025c-8.249-0.071-16.5-0.126-24.747,0.014
		c-3.403,0.058-6.907-0.814-10.215,0.729c-0.411,0.379-0.823,0.759-1.233,1.138C233.548,65.351,233.296,65.69,233.045,66.029z
		 M74.028,64.045c-0.339,0.252-0.679,0.503-1.018,0.754c-0.379,0.412-0.759,0.823-1.138,1.235
		c-1.707,8.563-0.536,17.214-0.688,25.819c-0.084,4.758-0.947,9.619,0.688,14.317c0.721,0.722,1.442,1.442,2.163,2.164
		c13.107,1.531,26.238,0.76,39.364,0.375c0.237-0.007,0.463-0.43,0.694-0.658c0.652-0.653,1.305-1.307,1.957-1.96
		c1.759-13.326,1.759-26.652,0-39.979c-0.307-0.345-0.615-0.69-0.922-1.035c-0.316-0.344-0.632-0.688-0.949-1.031l-0.035-0.021
		c-0.867-1.006-2.059-0.919-3.204-0.92c-11.225-0.009-22.451-0.009-33.676,0c-1.146,0.001-2.337-0.086-3.204,0.92L74.028,64.045z
		 M221.093,108.052c0.652-0.653,1.305-1.307,1.957-1.96c1.758-13.326,1.759-26.652,0-39.979c-0.652-0.653-1.305-1.307-1.957-1.96
		c-1.42-1.694-3.371-1.012-5.096-1.026c-8.249-0.071-16.5-0.126-24.748,0.014c-3.403,0.058-6.907-0.815-10.215,0.729
		c-0.721,0.722-1.441,1.442-2.162,2.164c-1.758,8.226-0.551,16.548-0.682,24.819c-0.081,5.091-0.992,10.283,0.682,15.317
		c0.721,0.722,1.441,1.442,2.162,2.164c13.107,1.531,26.239,0.76,39.365,0.375C220.636,108.703,220.863,108.28,221.093,108.052z"/>
	<path fill-rule="evenodd" clip-rule="evenodd" fill="#2A2929" d="M178.873,66.034c0.721-0.722,1.441-1.442,2.163-2.164
		c13.353,0.095,26.705,0.189,40.058,0.283c0.652,0.653,1.305,1.307,1.957,1.96c0,13.326,0,26.652,0,39.979
		c-0.652,0.653-1.305,1.307-1.957,1.96c-13.354,0.094-26.705,0.188-40.059,0.283c-0.721-0.722-1.441-1.442-2.162-2.164
		C178.873,92.792,178.873,79.413,178.873,66.034z"/>
	<path fill-rule="evenodd" clip-rule="evenodd" fill="#2A2929" d="M233.8,65.011c0.41-0.379,0.822-0.759,1.233-1.138
		c13.353,0.095,26.705,0.188,40.058,0.283c0.345,0.308,0.689,0.614,1.034,0.922c0.345,0.316,0.688,0.633,1.032,0.948l0.021,0.034
		c0,13.361,0,26.723,0,40.084l-0.021,0.033c-0.344,0.316-0.688,0.633-1.031,0.949c-0.345,0.308-0.69,0.614-1.035,0.922
		c-13.353,0.095-26.705,0.189-40.058,0.283c-0.72-0.72-1.44-1.44-2.161-2.161c0.051-13.37,0.104-26.74,0.154-40.11l0.019-0.031
		C233.607,65.92,233.939,65.64,233.8,65.011z"/>
	<path fill-rule="evenodd" clip-rule="evenodd" fill="#2A2929" d="M71.872,66.034c0.379-0.412,0.759-0.823,1.139-1.235
		c0.628,0.14,0.908-0.192,1.017-0.754l0.033-0.02c13.361,0,26.723,0,40.084,0l0.035,0.021c0.316,0.344,0.632,0.688,0.949,1.031
		c0.307,0.345,0.615,0.69,0.922,1.035c0,13.326,0,26.652,0,39.979c-0.652,0.653-1.305,1.307-1.958,1.96
		c-13.353,0.095-26.705,0.188-40.058,0.283c-0.721-0.722-1.442-1.442-2.163-2.164C71.872,92.792,71.872,79.413,71.872,66.034z"/>
	<path fill-rule="evenodd" clip-rule="evenodd" fill="#2A2929" d="M168.091,64.156c0.345,0.308,0.689,0.614,1.035,0.922
		c0.344,0.316,0.688,0.633,1.031,0.948l0.021,0.034c0,13.361,0,26.723,0,40.084l-0.022,0.03c-0.344,0.317-0.688,0.634-1.033,0.951
		c-0.344,0.307-0.688,0.614-1.033,0.921c-13.343,0.043-26.686,0.086-40.028,0.129c0,0-0.03-0.019-0.031-0.019
		c-0.338-0.303-0.676-0.605-1.014-0.908l-0.059-0.06c-0.303-0.338-0.606-0.676-0.909-1.015c0,0-0.019-0.031-0.02-0.031
		c0-13.36,0-26.722,0-40.082l0.018-0.029c0.563-0.111,0.896-0.393,0.756-1.023c0.41-0.379,0.821-0.757,1.231-1.136
		C141.387,63.968,154.739,64.062,168.091,64.156z"/>
	<path fill-rule="evenodd" clip-rule="evenodd" fill="#B7A099" d="M276.392,295.385c-1.843,1.136-3.894,0.7-5.857,0.7
		c-63.964,0.022-127.927,0.021-191.891,0.004c-1.973-0.001-4.012,0.371-5.885-0.645c0.132-0.132,0.264-0.267,0.394-0.401
		c46.29-0.027,92.58-0.054,138.87-0.08c21.327,0.007,42.654,0.014,63.982,0.021C276.132,295.119,276.262,295.253,276.392,295.385z"
		/>
	<path fill-rule="evenodd" clip-rule="evenodd" fill="#B7A099" d="M72.757,117.762c1.872-1.017,3.912-0.645,5.885-0.645
		c63.964-0.019,127.928-0.02,191.891,0.003c1.965,0,4.016-0.435,5.858,0.699c-0.13,0.132-0.26,0.266-0.387,0.4
		c-21.327,0.008-42.655,0.015-63.982,0.022c-46.29-0.026-92.58-0.053-138.871-0.079C73.021,118.028,72.89,117.894,72.757,117.762z"
		/>
	<path fill-rule="evenodd" clip-rule="evenodd" fill="#B7A099" d="M277.385,118.813c1.135,1.842,0.7,3.893,0.7,5.856
		c0.023,54.621,0.023,109.242,0,163.864c0,1.964,0.435,4.014-0.699,5.856c-0.132-0.13-0.266-0.259-0.4-0.387
		c0.039-13.317,0.117-26.635,0.111-39.953c-0.021-44.95-0.073-89.9-0.112-134.851C277.12,119.073,277.253,118.943,277.385,118.813z"
		/>
	<path fill-rule="evenodd" clip-rule="evenodd" fill="#B79F98" d="M70.763,293.453c-0.955-1.705-0.647-3.575-0.647-5.386
		c-0.014-54.309-0.014-108.618,0-162.927c0-1.811-0.307-3.681,0.646-5.387c0.133,0.135,0.267,0.268,0.402,0.399
		c0,57.633,0,115.267,0.001,172.899C71.029,293.185,70.896,293.318,70.763,293.453z"/>
	<path fill-rule="evenodd" clip-rule="evenodd" fill="#B8A19A" d="M114.145,64.025c-13.361,0-26.723,0-40.084,0
		c0.867-1.006,2.059-0.919,3.204-0.92c11.225-0.009,22.451-0.009,33.676,0C112.086,63.106,113.278,63.02,114.145,64.025z"/>
	<path fill-rule="evenodd" clip-rule="evenodd" fill="#B7A09A" d="M168.091,64.156c-13.352-0.095-26.705-0.188-40.058-0.283
		c3.307-1.543,6.811-0.671,10.215-0.729c8.247-0.14,16.499-0.085,24.748-0.014C164.721,63.146,166.672,62.461,168.091,64.156z"/>
	<path fill-rule="evenodd" clip-rule="evenodd" fill="#B8A19A" d="M221.093,64.153c-13.353-0.094-26.705-0.188-40.058-0.283
		c3.307-1.545,6.811-0.672,10.214-0.729c8.248-0.14,16.499-0.085,24.748-0.014C217.722,63.142,219.673,62.459,221.093,64.153z"/>
	<path fill-rule="evenodd" clip-rule="evenodd" fill="#B8A19A" d="M71.872,66.034c0,13.379,0,26.758,0,40.137
		c-1.635-4.698-0.773-9.56-0.688-14.317C71.336,83.248,70.165,74.597,71.872,66.034z"/>
	<path fill-rule="evenodd" clip-rule="evenodd" fill="#B8A19A" d="M116.05,106.092c0-13.326,0-26.652,0-39.979
		C117.809,79.439,117.809,92.766,116.05,106.092z"/>
	<path fill-rule="evenodd" clip-rule="evenodd" fill="#B7A09A" d="M275.091,64.156c-13.353-0.095-26.705-0.188-40.058-0.283
		c3.308-1.543,6.812-0.671,10.215-0.729c8.247-0.14,16.498-0.085,24.747-0.014C271.72,63.146,273.671,62.461,275.091,64.156z"/>
	<path fill-rule="evenodd" clip-rule="evenodd" fill="#B7A09A" d="M277.178,106.145c0-13.361,0-26.723,0-40.084
		c1.007,0.867,0.919,2.059,0.92,3.204c0.009,11.226,0.009,22.45,0,33.676C278.097,104.086,278.185,105.277,277.178,106.145z"/>
	<path fill-rule="evenodd" clip-rule="evenodd" fill="#B8A19A" d="M74.035,108.335c13.353-0.095,26.705-0.188,40.058-0.283
		c-0.23,0.229-0.456,0.651-0.693,0.658C100.273,109.095,87.143,109.866,74.035,108.335z"/>
	<path fill-rule="evenodd" clip-rule="evenodd" fill="#B7A099" d="M128.062,108.176c13.343-0.043,26.686-0.086,40.028-0.129
		c-0.108,0.124-0.21,0.351-0.327,0.358C154.524,109.379,141.286,109.876,128.062,108.176z"/>
	<path fill-rule="evenodd" clip-rule="evenodd" fill="#B8A19A" d="M181.035,108.335c13.354-0.095,26.705-0.189,40.059-0.283
		c-0.23,0.229-0.457,0.651-0.693,0.658C207.274,109.095,194.142,109.866,181.035,108.335z"/>
	<path fill-rule="evenodd" clip-rule="evenodd" fill="#B7A09A" d="M235.034,108.332c13.353-0.094,26.705-0.188,40.058-0.283
		c-0.23,0.229-0.456,0.651-0.693,0.658C261.273,109.091,248.141,109.862,235.034,108.332z"/>
	<path fill-rule="evenodd" clip-rule="evenodd" fill="#B8A19A" d="M223.05,106.092c0-13.326,0-26.652,0-39.979
		C224.809,79.439,224.808,92.766,223.05,106.092z"/>
	<path fill-rule="evenodd" clip-rule="evenodd" fill="#B8A19A" d="M178.873,66.034c0,13.379,0,26.758,0,40.137
		c-1.674-5.034-0.763-10.227-0.682-15.317C178.322,82.582,177.115,74.26,178.873,66.034z"/>
	<path fill-rule="evenodd" clip-rule="evenodd" fill="#B7A09A" d="M170.179,106.145c0-13.361,0-26.723,0-40.084
		c1.006,0.867,0.918,2.059,0.919,3.204c0.009,11.226,0.009,22.45,0,33.676C171.097,104.086,171.185,105.277,170.179,106.145z"/>
	<path fill-rule="evenodd" clip-rule="evenodd" fill="#B7A099" d="M126.029,66.062c0,13.36,0,26.722,0,40.082
		c-1.007-0.866-0.917-2.059-0.918-3.203c-0.009-11.226-0.009-22.45,0-33.675C125.112,68.12,125.022,66.928,126.029,66.062z"/>
	<path fill-rule="evenodd" clip-rule="evenodd" fill="#B8A19A" d="M233.027,66.061c-0.051,13.37-0.104,26.74-0.154,40.11
		c-1.527-3.135-0.675-6.476-0.729-9.711c-0.137-8.405-0.078-16.814-0.019-25.222C232.138,69.491,231.552,67.577,233.027,66.061z"/>
	<path fill-rule="evenodd" clip-rule="evenodd" fill="#B8A19A" d="M74.028,64.045c-0.109,0.562-0.389,0.894-1.017,0.754
		C73.349,64.548,73.688,64.297,74.028,64.045z"/>
	<path fill-rule="evenodd" clip-rule="evenodd" fill="#B8A19A" d="M115.128,65.078c-0.316-0.344-0.632-0.688-0.949-1.031
		C114.496,64.391,114.812,64.734,115.128,65.078z"/>
	<path fill-rule="evenodd" clip-rule="evenodd" fill="#B7A099" d="M126.803,65.009c0.14,0.631-0.192,0.912-0.756,1.023
		C126.299,65.691,126.551,65.351,126.803,65.009z"/>
	<path fill-rule="evenodd" clip-rule="evenodd" fill="#B7A09A" d="M170.157,66.026c-0.344-0.315-0.688-0.632-1.031-0.948
		C169.47,65.395,169.813,65.71,170.157,66.026z"/>
	<path fill-rule="evenodd" clip-rule="evenodd" fill="#B8A19A" d="M233.8,65.011c0.139,0.629-0.193,0.909-0.755,1.019
		C233.296,65.69,233.548,65.351,233.8,65.011z"/>
	<path fill-rule="evenodd" clip-rule="evenodd" fill="#B7A09A" d="M277.158,66.026c-0.344-0.315-0.688-0.632-1.032-0.948
		C276.469,65.395,276.813,65.71,277.158,66.026z"/>
	<path fill-rule="evenodd" clip-rule="evenodd" fill="#B7A099" d="M126.049,106.175c0.303,0.339,0.606,0.677,0.909,1.015
		C126.655,106.852,126.352,106.514,126.049,106.175z"/>
	<path fill-rule="evenodd" clip-rule="evenodd" fill="#B7A099" d="M169.124,107.126c0.345-0.317,0.689-0.634,1.033-0.951
		C169.813,106.492,169.468,106.809,169.124,107.126z"/>
	<path fill-rule="evenodd" clip-rule="evenodd" fill="#B7A099" d="M276.391,117.819c0.33,0.332,0.661,0.664,0.992,0.995
		c-0.13,0.129-0.264,0.259-0.398,0.386c-0.327-0.327-0.653-0.653-0.98-0.98C276.131,118.085,276.261,117.951,276.391,117.819z"/>
	<path fill-rule="evenodd" clip-rule="evenodd" fill="#B79F98" d="M70.762,119.754c0.328-0.341,0.657-0.683,0.985-1.023
		c0.119,0.126,0.239,0.252,0.361,0.376c-0.314,0.35-0.629,0.698-0.944,1.047C71.028,120.021,70.895,119.889,70.762,119.754z"/>
	<path fill-rule="evenodd" clip-rule="evenodd" fill="#B7A09A" d="M276.126,107.127c0.344-0.316,0.688-0.633,1.031-0.949
		C276.814,106.494,276.47,106.811,276.126,107.127z"/>
	<path fill-rule="evenodd" clip-rule="evenodd" fill="#B7A099" d="M127.017,107.249c0.338,0.303,0.676,0.605,1.014,0.908
		C127.693,107.854,127.355,107.552,127.017,107.249z"/>
	<path fill-rule="evenodd" clip-rule="evenodd" fill="#B79F98" d="M71.748,294.477c-0.328-0.342-0.655-0.684-0.983-1.024
		c0.131-0.134,0.265-0.268,0.4-0.399c0.314,0.349,0.628,0.697,0.943,1.046C71.986,294.224,71.866,294.35,71.748,294.477z"/>
	<path fill-rule="evenodd" clip-rule="evenodd" fill="#B79F98" d="M72.759,295.444c-0.337-0.323-0.673-0.647-1.011-0.97
		c0.118-0.125,0.238-0.251,0.359-0.376c0.349,0.314,0.697,0.629,1.045,0.944C73.023,295.178,72.892,295.313,72.759,295.444z"/>
	<path fill-rule="evenodd" clip-rule="evenodd" fill="#B7A099" d="M277.386,294.391c-0.332,0.33-0.664,0.661-0.995,0.992
		c-0.129-0.13-0.259-0.264-0.386-0.398c0.327-0.327,0.653-0.653,0.98-0.98C277.121,294.132,277.254,294.261,277.386,294.391z"/>
	<path fill-rule="evenodd" clip-rule="evenodd" fill="#B79F98" d="M71.747,118.73c0.338-0.322,0.675-0.645,1.012-0.968
		c0.132,0.131,0.263,0.266,0.393,0.4c-0.348,0.314-0.696,0.629-1.044,0.943C71.986,118.982,71.866,118.856,71.747,118.73z"/>
	<path fill-rule="evenodd" clip-rule="evenodd" fill="#2A2929" d="M72.107,119.106c0.348-0.314,0.696-0.629,1.044-0.943
		c46.291,0.026,92.581,0.053,138.871,0.079c0.001,58.907,0.001,117.813,0.001,176.721c-46.291,0.026-92.58,0.053-138.87,0.08
		c-0.349-0.315-0.697-0.63-1.045-0.944c-0.314-0.349-0.628-0.697-0.943-1.046c0-57.633,0-115.267-0.001-172.899
		C71.478,119.805,71.793,119.456,72.107,119.106z"/>
	<path fill-rule="evenodd" clip-rule="evenodd" fill="#5B5959" d="M212.023,294.963c0-58.907,0-117.813-0.001-176.721
		c21.327-0.008,42.655-0.015,63.982-0.022c0.327,0.327,0.653,0.653,0.98,0.98c0.039,44.95,0.091,89.9,0.112,134.851
		c0.006,13.318-0.072,26.636-0.111,39.953c-0.327,0.327-0.653,0.653-0.98,0.98C254.677,294.977,233.35,294.97,212.023,294.963z"/>
</g>
</svg>
