<?xml version="1.0" encoding="utf-8"?>
<!-- Generator: Adobe Illustrator 16.0.0, SVG Export Plug-In . SVG Version: 6.00 Build 0)  -->
<!DOCTYPE svg PUBLIC "-//W3C//DTD SVG 1.1//EN" "http://www.w3.org/Graphics/SVG/1.1/DTD/svg11.dtd">
<svg version="1.1" id="Layer_1" xmlns="http://www.w3.org/2000/svg" xmlns:xlink="http://www.w3.org/1999/xlink" x="0px" y="0px"
	 width="349.096px" height="349.099px" viewBox="0 0 349.096 349.099" enable-background="new 0 0 349.096 349.099"
	 xml:space="preserve">
<g>
	<path fill-rule="evenodd" clip-rule="evenodd" fill="#DADADA" d="M110,0.099c78.334,0,156.667,0.028,235-0.096
		c3.424-0.006,4.099,0.672,4.096,4.096c-0.115,113.667-0.115,227.333,0,341c0.003,3.424-0.671,4.102-4.096,4.096
		c-78.333-0.124-156.666-0.096-235-0.096C110,232.766,110,116.432,110,0.099z M228.919,76.099c34.474,0,68.948-0.057,103.423,0.082
		c3.659,0.016,4.81-0.817,4.754-4.645c-0.229-15.652-0.186-31.31-0.024-46.963c0.034-3.338-0.66-4.562-4.317-4.556
		c-69.114,0.11-138.23,0.105-207.345,0.009c-3.43-0.005-4.539,0.806-4.493,4.385c0.197,15.485,0.306,30.98-0.049,46.461
		c-0.108,4.707,1.511,5.333,5.629,5.314C160.636,76.032,194.777,76.099,228.919,76.099z M147.868,118.377
		c-0.056,0.167-0.112,0.333-0.168,0.5c53.547,0,107.094,0,160.642,0c0-0.167,0-0.333,0-0.5
		C254.85,118.377,201.359,118.377,147.868,118.377z M293.108,231.952c0.072-0.166,0.145-0.333,0.216-0.5
		c-52.147,0-104.295,0-156.443,0c0,0.167,0.001,0.334,0.001,0.5C188.957,231.952,241.033,231.952,293.108,231.952z M175.893,197.247
		c-0.072,0.167-0.145,0.333-0.218,0.5c49.148,0,98.297,0,147.445,0c-0.001-0.167-0.001-0.333-0.002-0.5
		C274.043,197.247,224.968,197.247,175.893,197.247z M286.332,212.877c-0.077-0.167-0.153-0.333-0.23-0.5
		c-46.793,0-93.585,0-140.377,0c0,0.167,0.001,0.333,0.001,0.5C192.594,212.877,239.463,212.877,286.332,212.877z M132.901,135.25
		c-0.079,0.167-0.157,0.333-0.235,0.5c42.82,0,85.643,0,128.463,0c0-0.167-0.001-0.333-0.001-0.5
		C218.386,135.25,175.644,135.25,132.901,135.25z M294.347,265.823c0-0.126-0.001-0.252-0.002-0.378c-42.495,0-84.989,0-127.484,0
		c0,0.126,0.001,0.252,0.002,0.378C209.357,265.823,251.852,265.823,294.347,265.823z M192.878,247.248
		c-0.063,0.165-0.126,0.329-0.188,0.494c38.806,0,77.611,0,116.417,0c-0.001-0.165-0.001-0.329-0.002-0.494
		C270.362,247.248,231.62,247.248,192.878,247.248z M134.903,105.25c-0.08,0.166-0.16,0.333-0.239,0.5c32.156,0,64.313,0,96.468,0
		c-0.001-0.167-0.001-0.334-0.002-0.5C199.055,105.25,166.979,105.25,134.903,105.25z M156.888,287.246
		c-0.07,0.166-0.139,0.333-0.209,0.5c32.146,0,64.292,0,96.438,0c-0.001-0.167-0.002-0.334-0.002-0.5
		C221.039,287.246,188.964,287.246,156.888,287.246z"/>
	<path fill-rule="evenodd" clip-rule="evenodd" fill="#5B5959" d="M110,0.099c0,116.333,0,232.667,0,349c-36.667,0-73.333,0-110,0
		c0-115,0.02-230-0.095-345C-0.099,0.675,0.574-0.015,4,0C39.333,0.162,74.667,0.099,110,0.099z"/>
	<path fill-rule="evenodd" clip-rule="evenodd" fill="#5B5959" d="M228.919,76.099c-34.142,0-68.283-0.067-102.423,0.088
		c-4.118,0.019-5.737-0.607-5.629-5.314c0.355-15.48,0.247-30.976,0.049-46.461c-0.046-3.579,1.063-4.39,4.493-4.385
		c69.114,0.097,138.23,0.102,207.345-0.009c3.657-0.006,4.352,1.218,4.317,4.556c-0.161,15.653-0.205,31.311,0.024,46.963
		c0.056,3.827-1.095,4.66-4.754,4.645C297.867,76.042,263.393,76.099,228.919,76.099z"/>
	<path fill-rule="evenodd" clip-rule="evenodd" d="M147.868,118.377c53.492,0,106.982,0,160.473,0c0,0.167,0,0.333,0,0.5
		c-53.548,0-107.095,0-160.642,0C147.755,118.71,147.812,118.544,147.868,118.377z"/>
	<path fill-rule="evenodd" clip-rule="evenodd" d="M293.108,231.952c-52.075,0-104.151,0-156.226,0c0-0.166-0.001-0.333-0.001-0.5
		c52.148,0,104.296,0,156.443,0C293.253,231.619,293.181,231.786,293.108,231.952z"/>
	<path fill-rule="evenodd" clip-rule="evenodd" d="M175.893,197.247c49.075,0,98.15,0,147.226,0c0.001,0.167,0.001,0.333,0.002,0.5
		c-49.148,0-98.297,0-147.445,0C175.748,197.58,175.82,197.414,175.893,197.247z"/>
	<path fill-rule="evenodd" clip-rule="evenodd" d="M286.332,212.877c-46.869,0-93.738,0-140.606,0c0-0.167-0.001-0.333-0.001-0.5
		c46.792,0,93.584,0,140.377,0C286.179,212.544,286.255,212.71,286.332,212.877z"/>
	<path fill-rule="evenodd" clip-rule="evenodd" d="M132.901,135.25c42.742,0,85.484,0,128.227,0c0,0.167,0.001,0.333,0.001,0.5
		c-42.82,0-85.643,0-128.463,0C132.744,135.583,132.823,135.417,132.901,135.25z"/>
	<path fill-rule="evenodd" clip-rule="evenodd" d="M294.347,265.823c-42.495,0-84.989,0-127.484,0
		c-0.001-0.126-0.001-0.252-0.002-0.378c42.495,0,84.989,0,127.484,0C294.346,265.571,294.347,265.697,294.347,265.823z"/>
	<path fill-rule="evenodd" clip-rule="evenodd" d="M192.878,247.248c38.742,0,77.484,0,116.227,0
		c0.001,0.165,0.001,0.329,0.002,0.494c-38.806,0-77.611,0-116.417,0C192.752,247.577,192.814,247.413,192.878,247.248z"/>
	<path fill-rule="evenodd" clip-rule="evenodd" d="M134.903,105.25c32.076,0,64.151,0,96.227,0c0.001,0.166,0.001,0.333,0.002,0.5
		c-32.155,0-64.312,0-96.468,0C134.744,105.583,134.824,105.417,134.903,105.25z"/>
	<path fill-rule="evenodd" clip-rule="evenodd" d="M156.888,287.246c32.076,0,64.151,0,96.227,0c0,0.166,0.001,0.333,0.002,0.5
		c-32.146,0-64.292,0-96.438,0C156.749,287.579,156.818,287.412,156.888,287.246z"/>
</g>
</svg>
